<?xml version="1.0" encoding="UTF-8" standalone="no"?>
<svg xmlns="http://www.w3.org/2000/svg"
     xmlns:xlink="http://www.w3.org/1999/xlink"
     width="1600px" height="763px" viewBox="0 0 1600 763">
<title>glps_renderer figure</title>
<desc>
Creator: GL2PS 1.3.9, (C) 1999-2015 C. Geuzaine
For: Octave
CreationDate: Mon Jan  6 02:32:01 2020
</desc>
<defs>
</defs>
<g shape-rendering="crispEdges">
<polygon fill="#ffffff" points="74.88,254.315 521.28,254.315 74.88,162.565"/>
<polygon fill="#ffffff" points="521.28,254.315 521.28,162.565 74.88,162.565"/>
<polyline fill="none" stroke="#000000" stroke-width="0.5" stroke-dasharray="16,0" points="74.88,254.315 521.28,254.315"/>
<polyline fill="none" stroke="#000000" stroke-width="0.5" stroke-dasharray="16,0" points="74.88,162.565 521.28,162.565"/>
<polyline fill="none" stroke="#000000" stroke-width="0.5" stroke-dasharray="16,0" points="74.88,254.315 74.88,162.565"/>
<polyline fill="none" stroke="#000000" stroke-width="0.5" stroke-dasharray="16,0" points="521.28,254.315 521.28,162.565"/>
<polyline fill="none" stroke="#000000" stroke-width="0.5" stroke-dasharray="16,0" points="134.317,254.315 134.317,249.863"/>
<polyline fill="none" stroke="#000000" stroke-width="0.5" stroke-dasharray="16,0" points="134.317,162.565 134.317,167.017"/>
<polyline fill="none" stroke="#000000" stroke-width="0.5" stroke-dasharray="16,0" points="217.633,254.315 217.633,249.863"/>
<polyline fill="none" stroke="#000000" stroke-width="0.5" stroke-dasharray="16,0" points="217.633,162.565 217.633,167.017"/>
<polyline fill="none" stroke="#000000" stroke-width="0.5" stroke-dasharray="16,0" points="300.949,254.315 300.949,249.863"/>
<polyline fill="none" stroke="#000000" stroke-width="0.5" stroke-dasharray="16,0" points="300.949,162.565 300.949,167.017"/>
<polyline fill="none" stroke="#000000" stroke-width="0.5" stroke-dasharray="16,0" points="384.264,254.315 384.264,249.863"/>
<polyline fill="none" stroke="#000000" stroke-width="0.5" stroke-dasharray="16,0" points="384.264,162.565 384.264,167.017"/>
<polyline fill="none" stroke="#000000" stroke-width="0.5" stroke-dasharray="16,0" points="467.58,254.315 467.58,249.863"/>
<polyline fill="none" stroke="#000000" stroke-width="0.5" stroke-dasharray="16,0" points="467.58,162.565 467.58,167.017"/>
<text fill="#000000" x="134.317" y="259.302" font-size="10" text-anchor="middle" baseline-shift="-10" font-family="Helvetica">-0.004</text>
<text fill="#000000" x="217.633" y="259.302" font-size="10" text-anchor="middle" baseline-shift="-10" font-family="Helvetica">-0.002</text>
<text fill="#000000" x="300.949" y="259.302" font-size="10" text-anchor="middle" baseline-shift="-10" font-family="Helvetica">0</text>
<text fill="#000000" x="384.264" y="259.302" font-size="10" text-anchor="middle" baseline-shift="-10" font-family="Helvetica">0.002</text>
<text fill="#000000" x="467.58" y="259.302" font-size="10" text-anchor="middle" baseline-shift="-10" font-family="Helvetica">0.004</text>
<polyline fill="none" stroke="#000000" stroke-width="0.5" stroke-dasharray="16,0" points="74.88,237.191 79.348,237.191"/>
<polyline fill="none" stroke="#000000" stroke-width="0.5" stroke-dasharray="16,0" points="521.28,237.191 516.812,237.191"/>
<polyline fill="none" stroke="#000000" stroke-width="0.5" stroke-dasharray="16,0" points="74.88,216.362 79.348,216.362"/>
<polyline fill="none" stroke="#000000" stroke-width="0.5" stroke-dasharray="16,0" points="521.28,216.362 516.812,216.362"/>
<polyline fill="none" stroke="#000000" stroke-width="0.5" stroke-dasharray="16,0" points="74.88,195.533 79.348,195.533"/>
<polyline fill="none" stroke="#000000" stroke-width="0.5" stroke-dasharray="16,0" points="521.28,195.533 516.812,195.533"/>
<polyline fill="none" stroke="#000000" stroke-width="0.5" stroke-dasharray="16,0" points="74.88,174.704 79.348,174.704"/>
<polyline fill="none" stroke="#000000" stroke-width="0.5" stroke-dasharray="16,0" points="521.28,174.704 516.812,174.704"/>
<text fill="#000000" x="69.8755" y="237.191" font-size="10" text-anchor="end" baseline-shift="-5" font-family="Helvetica">-0.0005</text>
<text fill="#000000" x="69.8755" y="216.362" font-size="10" text-anchor="end" baseline-shift="-5" font-family="Helvetica">0</text>
<text fill="#000000" x="69.8755" y="195.533" font-size="10" text-anchor="end" baseline-shift="-5" font-family="Helvetica">0.0005</text>
<text fill="#000000" x="69.8755" y="174.704" font-size="10" text-anchor="end" baseline-shift="-5" font-family="Helvetica">0.001</text>
<text fill="#000000" x="298.08" y="270.302" font-size="10" text-anchor="middle" baseline-shift="-10" font-family="Helvetica">x [m]</text>
<text fill="#000000" x="28.8755" y="208.44" font-size="10" transform="rotate(-90, 28.8755, 208.44)" text-anchor="middle" baseline-shift="0" font-family="Helvetica">y [m]</text>
<polyline fill="none" stroke="#000000" stroke-width="2" points="91.6534,230.547 90.3052,229.802 88.783,229.567 87.2729,229.871 85.9601,230.677 85.0051,231.885 84.5247,233.349 84.5779,234.888 85.1581,236.315 86.1944,237.454 87.5598,238.167 89.0872,238.366 90.5896,238.027 91.8831,237.19 92.8094,235.96 93.2551,234.485 93.1655,232.948 92.5517,231.535 91.4888,230.42 90.1071,229.74 88.5754,229.577 87.0814,229.952 85.808,230.818 84.911,232.071 84.5003,233.555 84.6261,235.09 85.2731,236.488 86.3619,237.577 87.7595,238.225 89.2946,238.352 90.7792,237.942 92.0319,237.045 92.899,235.772 93.2746,234.279 93.1125,232.747"/>
<polyline fill="none" stroke="#000000" stroke-width="2" points="308.61,202.297 308.113,202.183 307.608,202.247 307.155,202.482 306.812,202.858 306.618,203.33 306.6,203.839 306.757,204.323 307.072,204.724 307.506,204.992 308.005,205.093 308.509,205.017 308.955,204.772 309.29,204.388 309.472,203.912 309.479,203.402 309.31,202.922 308.986,202.529 308.546,202.271 308.044,202.181 307.543,202.269 307.102,202.525 306.776,202.917 306.606,203.397 306.611,203.907 306.791,204.383 307.124,204.769 307.57,205.015 308.074,205.094 308.573,204.993 309.008,204.727 309.324,204.328 309.484,203.844 309.466,203.335 309.275,202.862"/>
<polyline fill="none" stroke="#000000" stroke-width="2" points="338.808,196.111 338.753,193.661 337.858,191.379 336.232,189.545 334.073,188.384 331.647,188.037 329.249,188.548 327.175,189.853 325.676,191.793 324.938,194.13 325.05,196.579 325.999,198.839 327.668,200.633 329.854,201.744 332.288,202.033 334.672,201.466 336.716,200.112 338.168,198.137 338.85,195.783 338.681,193.338 337.679,191.101 335.968,189.346 333.757,188.288 331.317,188.056 328.946,188.679 326.935,190.081 325.53,192.089 324.903,194.459 325.131,196.899 326.185,199.112 327.937,200.826 330.172,201.832 332.617,202.006 334.972,201.327 336.95,199.878"/>
<polyline fill="none" stroke="#000000" stroke-width="2" points="111.123,200.267 107.738,194.84 102.69,190.913 96.5987,188.964 90.2087,189.233 84.3026,191.687 79.6032,196.025 76.6859,201.716 75.9078,208.065 77.3641,214.292 80.8766,219.637 86.0153,223.445 92.1512,225.249 98.533,224.829 104.38,222.237 108.975,217.789 111.757,212.03 112.385,205.665 110.783,199.474 107.145,194.213 101.918,190.528 95.741,188.869 89.3708,189.439 83.587,192.169 79.0976,196.724 76.4521,202.547 75.9745,208.925 77.7232,215.077 81.484,220.25 86.7968,223.811 93.0109,225.323 99.3658,224.603 105.084,221.737 109.464,217.078 111.971,211.194"/>
<polyline fill="none" stroke="#000000" stroke-width="2" points="367.912,239.796 373.462,243.76 380.038,245.569 386.834,245.003 393.019,242.13 397.837,237.302 400.696,231.11 401.247,224.313 399.423,217.741 395.446,212.2 389.804,208.369 383.188,206.715 376.407,207.441 370.291,210.459 365.589,215.4 362.877,221.657 362.487,228.466 364.465,234.993 368.571,240.438 374.302,244.136 380.956,245.633 387.718,244.746 393.761,241.585 398.345,236.535 400.908,230.215 401.138,223.399 399.006,216.921 394.772,211.574 388.956,208.013 382.269,206.673 375.529,207.719 369.563,211.022 365.099,216.179 362.686,222.557 362.617,229.377"/>
<polyline fill="none" stroke="#000000" stroke-width="2" points="162.424,217.028 162.836,216.988 163.21,216.809 163.499,216.512 163.667,216.133 163.696,215.72 163.58,215.322 163.334,214.989 162.988,214.76 162.585,214.665 162.173,214.714 161.804,214.902 161.522,215.206 161.362,215.589 161.344,216.003 161.469,216.398 161.723,216.725 162.074,216.945 162.479,217.031 162.89,216.972 163.254,216.775 163.529,216.465 163.68,216.079 163.688,215.665 163.554,215.273 163.292,214.951 162.936,214.739 162.529,214.663 162.12,214.732 161.76,214.937 161.493,215.254 161.351,215.643 161.352,216.058 161.496,216.446 161.765,216.762"/>
<polyline fill="none" stroke="#000000" stroke-width="2" points="203.179,231.305 202.125,229.448 200.495,228.069 198.49,227.335 196.355,227.336 194.352,228.073 192.724,229.456 191.673,231.314 191.326,233.42 191.726,235.518 192.824,237.349 194.485,238.69 196.507,239.376 198.641,239.324 200.627,238.54 202.221,237.119 203.229,235.237 203.526,233.123 203.076,231.036 201.936,229.231 200.243,227.93 198.206,227.291 196.073,227.394 194.106,228.224 192.546,229.682 191.583,231.588 191.336,233.708 191.835,235.784 193.018,237.562 194.741,238.822 196.793,239.413 198.922,239.26 200.869,238.383 202.394,236.889 203.311,234.961"/>
<polyline fill="none" stroke="#000000" stroke-width="2" points="118.516,207.214 123.806,207.134 128.744,205.237 132.726,201.755 135.265,197.114 136.05,191.882 134.984,186.701 132.199,182.203 128.035,178.941 123.002,177.312 117.716,177.517 112.824,179.53 108.925,183.106 106.496,187.805 105.835,193.054 107.023,198.209 109.914,202.639 114.153,205.803 119.224,207.312 124.503,206.982 129.346,204.854 133.16,201.188 135.477,196.432 136.013,191.169 134.705,186.044 131.71,181.683 127.397,178.62 122.293,177.231 117.022,177.685 112.231,179.927 108.505,183.683 106.301,188.492 105.888,193.766 107.318,198.859 110.414,203.148"/>
<polyline fill="none" stroke="#000000" stroke-width="2" points="511.36,201.419 513.992,201.778 516.587,201.209 518.828,199.78 520.439,197.667 521.223,195.129 521.085,192.475 520.041,190.032 518.22,188.097 515.844,186.909 513.203,186.612 510.622,187.242 508.416,188.724 506.856,190.874 506.131,193.43 506.332,196.08 507.433,198.498 509.3,200.388 511.703,201.521 514.35,201.755 516.915,201.064 519.086,199.531 520.595,197.345 521.259,194.772 520.996,192.128 519.838,189.737 517.927,187.89 515.497,186.815 512.846,186.643 510.298,187.395 508.164,188.978 506.707,191.2 506.104,193.788 506.429,196.425 507.643,198.788"/>
<polyline fill="none" stroke="#000000" stroke-width="2" points="269.862,215.636 274.051,214.981 277.758,212.923 280.53,209.714 282.026,205.747 282.064,201.507 280.639,197.514 278.175,194.591 277.578,195.267 277.252,196.108 277.234,197.009 277.528,197.861 278.098,198.56 278.873,199.02 279.759,199.184 280.648,199.033 281.431,198.585 282.011,197.895 282.318,197.048 282.314,196.146 282,195.301 281.414,194.616 280.628,194.175 279.738,194.031 278.853,194.203 278.081,194.669 277.518,195.373 277.231,196.227 277.256,197.129 277.59,197.966 278.192,198.637 278.988,199.06 279.881,199.182 280.762,198.989 281.522,198.505"/>
<polyline fill="none" stroke="#000000" stroke-width="0.5" points="96.1126,232.747 95.5396,234.51 94.0396,235.6 92.1855,235.6 90.6855,234.51 90.1125,232.747 90.6855,230.983 92.1855,229.894 94.0396,229.894 95.5396,230.983 96.1126,232.747"/>
<polyline fill="none" stroke="#000000" stroke-width="0.5" points="312.275,202.862 311.702,204.626 310.202,205.716 308.348,205.716 306.848,204.626 306.275,202.862 306.848,201.099 308.348,200.009 310.202,200.009 311.702,201.099 312.275,202.862"/>
<polyline fill="none" stroke="#000000" stroke-width="0.5" points="339.95,199.878 339.377,201.642 337.877,202.732 336.023,202.732 334.523,201.642 333.95,199.878 334.523,198.115 336.023,197.025 337.877,197.025 339.377,198.115 339.95,199.878"/>
<polyline fill="none" stroke="#000000" stroke-width="0.5" points="114.971,211.194 114.398,212.957 112.899,214.047 111.044,214.047 109.544,212.957 108.971,211.194 109.544,209.43 111.044,208.341 112.899,208.341 114.398,209.43 114.971,211.194"/>
<polyline fill="none" stroke="#000000" stroke-width="0.5" points="365.617,229.377 365.044,231.14 363.544,232.23 361.69,232.23 360.19,231.14 359.617,229.377 360.19,227.614 361.69,226.524 363.544,226.524 365.044,227.614 365.617,229.377"/>
<polyline fill="none" stroke="#000000" stroke-width="0.5" points="164.765,216.762 164.192,218.525 162.692,219.615 160.838,219.615 159.338,218.525 158.765,216.762 159.338,214.998 160.838,213.909 162.692,213.909 164.192,214.998 164.765,216.762"/>
<polyline fill="none" stroke="#000000" stroke-width="0.5" points="206.311,234.961 205.739,236.724 204.239,237.814 202.384,237.814 200.884,236.724 200.311,234.961 200.884,233.198 202.384,232.108 204.239,232.108 205.739,233.198 206.311,234.961"/>
<polyline fill="none" stroke="#000000" stroke-width="0.5" points="113.414,203.148 112.841,204.911 111.341,206.001 109.487,206.001 107.987,204.911 107.414,203.148 107.987,201.385 109.487,200.295 111.341,200.295 112.841,201.385 113.414,203.148"/>
<polyline fill="none" stroke="#000000" stroke-width="0.5" points="510.643,198.788 510.07,200.551 508.57,201.641 506.716,201.641 505.216,200.551 504.643,198.788 505.216,197.025 506.716,195.935 508.57,195.935 510.07,197.025 510.643,198.788"/>
<polyline fill="none" stroke="#000000" stroke-width="0.5" points="284.522,198.505 283.949,200.269 282.449,201.358 280.595,201.358 279.095,200.269 278.522,198.505 279.095,196.742 280.595,195.652 282.449,195.652 283.949,196.742 284.522,198.505"/>
</g>
</svg>
